<svg xmlns="http://www.w3.org/2000/svg" fill="none" viewBox="0 0 24 22">
  <path fill="#fff" fill-rule="evenodd" d="M2.7071.292908 1.29289 1.70712l4.06482 4.06482c-.37866.31381-.7534.65083-1.12401 1.00922-.82922.8019-1.5794 1.65801-2.2398 2.51448-.3985.51682-.68143.92336-.83634 1.16556L.812958 11l.344602.5388c.15491.2422.43784.6488.83634 1.1656.6604.8565 1.41058 1.7126 2.2398 2.5145C6.66431 17.5694 9.27244 19 12 19c1.7209 0 3.3943-.5695 5.0055-1.5802l4.2874 4.2873 1.4142-1.4142-20-19.999992ZM15.5446 15.9589l-1.5126-1.5127C13.4364 14.7981 12.7418 15 12 15c-2.20915 0-4.00001-1.7908-4.00001-4 0-.7418.20193-1.43644.55382-2.03195l-1.7741-1.7741c-.38739.31241-.77294.65479-1.15568 1.02491-.7542.72936-1.44165 1.51387-2.04629 2.29804-.13059.1693-.25126.3309-.36158.4831.11032.1522.23099.3138.36158.4831.60464.7842 1.29209 1.5687 2.04629 2.2981C7.71748 15.8056 9.89492 17 12 17c1.1682 0 2.3586-.3678 3.5446-1.0411Zm-5.4769-5.4769c-.0441.1652-.06771.3389-.06771.518 0 1.1046.89541 2 2.00001 2 .1792 0 .3528-.0235.518-.0677l-2.4503-2.4503Zm10.0304 4.409-1.4143-1.4143c.6342-.641 1.2171-1.3174 1.7384-1.9936.1306-.1693.2513-.3309.3616-.4831-.1103-.1522-.231-.3138-.3616-.4831-.6046-.78417-1.292-1.56868-2.0462-2.29804C16.2825 6.19439 14.1051 5.00001 12 5.00001c-.5223 0-1.0491.07353-1.5779.21502L8.84014 3.63306C9.87259 3.22139 10.9271 3.00001 12 3.00001c2.7275 0 5.3357 1.43063 7.7663 3.78115.8292.8019 1.5794 1.65801 2.2398 2.51448.3985.51682.6814.92336.8363 1.16556L23.187 11l-.3446.5388c-.1549.2422-.4378.6488-.8363 1.1656-.5712.7407-1.2095 1.4812-1.908 2.1866Z" clip-rule="evenodd"/>
</svg>
