<svg xmlns="http://www.w3.org/2000/svg" fill="none" viewBox="0 0 24 24">
  <path fill="#fff" fill-rule="evenodd" d="M12 4c2.7275 0 5.3357 1.43062 7.7663 3.78115.8292.8019 1.5794 1.65801 2.2398 2.51445.3985.5168.6814.9234.8363 1.1656L23.187 12l-.3446.5388c-.1549.2422-.4378.6488-.8363 1.1656-.6604.8564-1.4106 1.7126-2.2398 2.5145C17.3357 18.5694 14.7275 20 12 20c-2.72756 0-5.33569-1.4306-7.7663-3.7811-.82922-.8019-1.5794-1.6581-2.2398-2.5145-.3985-.5168-.68143-.9234-.83634-1.1656L.812958 12l.344602-.5388c.15491-.2422.43784-.6488.83634-1.1656.6604-.85644 1.41058-1.71255 2.2398-2.51445C6.66431 5.43062 9.27244 4 12 4Zm8.4222 7.5169c-.6046-.7842-1.292-1.5687-2.0462-2.29805C16.2825 7.19438 14.1051 6 12 6 9.89492 6 7.71748 7.19438 5.62403 9.21885c-.7542.72935-1.44165 1.51385-2.04629 2.29805-.13059.1693-.25126.3309-.36158.4831.11032.1522.23099.3138.36158.4831.60464.7842 1.29209 1.5687 2.04629 2.298C7.71748 16.8056 9.89492 18 12 18c2.1051 0 4.2825-1.1944 6.376-3.2189.7542-.7293 1.4416-1.5138 2.0462-2.298.1306-.1693.2513-.3309.3616-.4831-.1103-.1522-.231-.3138-.3616-.4831ZM7.99999 12c0 2.2091 1.79086 4 4.00001 4 2.2091 0 4-1.7909 4-4 0-2.20914-1.7909-4-4-4-2.20915 0-4.00001 1.79086-4.00001 4ZM14 12c0 1.1046-.8954 2-2 2s-2.00001-.8954-2.00001-2S10.8954 10 12 10s2 .8954 2 2Z" clip-rule="evenodd"/>
</svg>
