<svg xmlns="http://www.w3.org/2000/svg" fill="none" viewBox="0 0 261 41"><path fill="#365099" d="M12 41c9 0 13-4 13-10 0-11-17-7-17-13 0-2 1-3 5-3l9 2 2-5c-3-2-7-3-11-3C5 9 1 13 1 19c0 11 17 7 17 13 0 2-1 3-6 3-3 0-7-1-10-3l-2 5c3 3 8 4 12 4ZM51 22H37V0h-7v40h7V28h14v12h7V22h-7ZM80 41c10 0 17-7 17-16S90 9 80 9c-9 0-16 7-16 16s7 16 16 16Zm0-6c-5 0-9-4-9-10s4-10 9-10c6 0 10 4 10 10s-4 10-10 10ZM116 10h-14v30h8v-8h6c8 0 13-4 13-11s-5-11-13-11Zm-1 16h-5V15h5c5 0 7 2 7 6 0 3-2 5-7 5ZM145 41c8 0 12-4 12-10 0-11-17-7-17-13 0-2 1-3 6-3l8 2 2-5c-3-2-7-3-10-3-9 0-13 4-13 10 0 11 17 7 17 13 0 2-1 3-5 3s-8-1-10-3l-3 5c3 3 8 4 13 4ZM183 22h-14V0h-7v40h7V28h14v12h7V22h-7ZM212 41c10 0 17-7 17-16s-7-16-17-16c-9 0-16 7-16 16s7 16 16 16Zm0-6c-5 0-9-4-9-10s4-10 9-10c6 0 10 4 10 10s-4 10-10 10ZM248 10h-13v30h7v-8h6c8 0 13-4 13-11s-5-11-13-11Zm-1 16h-5V15h5c5 0 7 2 7 6 0 3-2 5-7 5Z"/></svg>